<svg width="32" height="32" viewBox="0 0 32 32" fill="none" xmlns="http://www.w3.org/2000/svg">
<circle cx="16" cy="16" r="16" fill="#F9CC00"/>
<path d="M11.8333 24.3333H9.33329C8.89127 24.3333 8.46734 24.1577 8.15478 23.8452C7.84222 23.5326 7.66663 23.1087 7.66663 22.6667V16.8333C7.66663 16.3913 7.84222 15.9674 8.15478 15.6548C8.46734 15.3423 8.89127 15.1667 9.33329 15.1667H11.8333M17.6666 13.5V10.1667C17.6666 9.50362 17.4032 8.86774 16.9344 8.3989C16.4656 7.93006 15.8297 7.66666 15.1666 7.66666L11.8333 15.1667V24.3333H21.2333C21.6352 24.3379 22.0253 24.197 22.3315 23.9367C22.6378 23.6763 22.8397 23.3141 22.9 22.9167L24.05 15.4167C24.0862 15.1778 24.0701 14.9339 24.0027 14.7019C23.9354 14.4698 23.8184 14.2552 23.6598 14.0729C23.5013 13.8906 23.305 13.7449 23.0846 13.646C22.8642 13.5471 22.6249 13.4973 22.3833 13.5H17.6666Z" stroke="white" stroke-width="2" stroke-linecap="round" stroke-linejoin="round"/>
</svg>
